<svg width="41" height="40" viewBox="0 0 41 40" fill="none" xmlns="http://www.w3.org/2000/svg">
<path d="M20.4375 10.6251C21.3646 10.6251 22.2709 10.3502 23.0417 9.83508C23.8126 9.32001 24.4134 8.58792 24.7682 7.73139C25.123 6.87486 25.2158 5.93236 25.0349 5.02307C24.854 4.11378 24.4076 3.27856 23.7521 2.623C23.0965 1.96744 22.2612 1.521 21.352 1.34013C20.4427 1.15926 19.5002 1.25209 18.6437 1.60688C17.7871 1.96166 17.0551 2.56248 16.54 3.33333C16.025 4.10419 15.75 5.01047 15.75 5.93757C15.75 7.18077 16.2438 8.37304 17.1229 9.25212C18.002 10.1312 19.1943 10.6251 20.4375 10.6251ZM20.4375 3.12507C20.9938 3.12507 21.5376 3.29 22.0001 3.59904C22.4626 3.90809 22.823 4.34737 23.0359 4.86129C23.2488 5.37521 23.3045 5.9407 23.196 6.48627C23.0875 7.03185 22.8196 7.53299 22.4263 7.92632C22.0329 8.31966 21.5318 8.58749 20.9862 8.69601C20.4406 8.80453 19.8751 8.74886 19.3612 8.53599C18.8473 8.32312 18.4081 7.96262 18.099 7.50011C17.79 7.03759 17.625 6.49383 17.625 5.93757C17.6267 5.19215 17.9235 4.47773 18.4506 3.95064C18.9777 3.42356 19.6921 3.12672 20.4375 3.12507ZM26.375 31.2501V12.5001H10.75V20.0001H15.125V31.2501H10.75V38.7501H30.75V31.2501H26.375ZM28.875 36.8751H12.625V33.1251H17V18.1251H12.625V14.3751H24.5V33.1251H28.875V36.8751Z" fill="black"/>
</svg>
