<svg width="41" height="40" viewBox="0 0 41 40" fill="none" xmlns="http://www.w3.org/2000/svg">
<path d="M30.25 20.9376H35.25V19.0626H30.25V20.9376ZM32.8438 8.75006L37.125 4.46879L35.775 3.12506L30.15 8.75006H1.5V31.2501H7.64998L3.375 35.5313L4.71877 36.8813L10.3438 31.2563H39V8.73755L32.8438 8.75006ZM3.375 10.6125H7.66249C7.4677 11.6774 6.95304 12.6575 6.18704 13.4224C5.42105 14.1873 4.44011 14.7005 3.375 14.8938V10.6125ZM3.375 29.3625V25.0813C4.44011 25.2746 5.42105 25.7878 6.18704 26.5527C6.95304 27.3176 7.4677 28.2977 7.66249 29.3625H3.375ZM9.55 29.3625C9.33696 27.8011 8.61756 26.3528 7.50212 25.2396C6.38669 24.1264 4.93683 23.4099 3.375 23.2001V16.8063C4.94071 16.5967 6.39405 15.8781 7.51105 14.7611C8.62804 13.6441 9.34671 12.1908 9.55626 10.6251H28.3063L25.3062 13.6251C23.7429 12.4122 21.7908 11.8115 19.816 11.9356C17.8413 12.0598 15.9797 12.9003 14.5806 14.2994C13.1815 15.6985 12.341 17.5601 12.2169 19.5348C12.0927 21.5096 12.6934 23.4617 13.9062 25.025L9.55 29.3625ZM25.25 16.3125C26.0518 17.3733 26.4901 18.6642 26.5 19.9938C26.5 21.6514 25.8415 23.2411 24.6694 24.4132C23.4973 25.5853 21.9076 26.2438 20.25 26.2438C18.9246 26.2452 17.6339 25.8201 16.5687 25.0313L25.25 16.3125ZM15.1813 23.6875C14.2786 22.484 13.8403 20.9952 13.947 19.4945C14.0536 17.9938 14.698 16.582 15.7619 15.5181C16.8257 14.4543 18.2375 13.8099 19.7382 13.7033C21.2389 13.5966 22.7277 14.0349 23.9313 14.9375L15.1813 23.6875ZM37.125 29.3625H32.8375C33.0298 28.2966 33.5437 27.3151 34.3101 26.5498C35.0766 25.7845 36.0588 25.2721 37.125 25.0813V29.3625ZM37.125 23.1813C35.5589 23.3898 34.105 24.1082 32.9878 25.2254C31.8706 26.3425 31.1523 27.7964 30.9437 29.3625H12.1937L15.2 26.3626C16.7623 27.5622 18.7072 28.1534 20.6728 28.0263C22.6385 27.8992 24.491 27.0623 25.8858 25.6714C27.2805 24.2805 28.1225 22.4303 28.255 20.465C28.3875 18.4997 27.8016 16.5531 26.6063 14.9875L30.9312 10.6626C31.1458 12.2237 31.8667 13.6714 32.9833 14.7835C34.0999 15.8955 35.5504 16.6105 37.1125 16.8188L37.125 23.1813ZM37.125 14.9C36.0588 14.7093 35.0766 14.1968 34.3101 13.4315C33.5437 12.6662 33.0298 11.6847 32.8375 10.6188H37.125V14.9ZM5.25 20.9313H10.25V19.0563H5.25V20.9313Z" fill="black"/>
</svg>
