<svg width="41" height="40" viewBox="0 0 41 40" fill="none" xmlns="http://www.w3.org/2000/svg">
<path d="M6.59371 29.9189L5.075 31.0251C6.23446 32.6138 7.63463 34.0118 9.22501 35.1689L10.3313 33.6564C8.89637 32.6151 7.63493 31.3538 6.59371 29.9189ZM14.45 37.8376C16.3234 38.4445 18.2808 38.7524 20.25 38.7501V36.8751C18.4783 36.8769 16.7172 36.6007 15.0312 36.0564L14.45 37.8376ZM1.50002 20.0001C1.49733 21.9674 1.80527 23.9227 2.41249 25.7939L4.19373 25.2189C3.64944 23.5328 3.3732 21.7718 3.37502 20.0001H1.50002ZM24.4375 26.2501C24.4386 26.9153 24.2764 27.5706 23.965 28.1585C23.6536 28.7463 23.2027 29.2487 22.6518 29.6215C22.1008 29.9943 21.4667 30.2261 20.8053 30.2965C20.1438 30.367 19.4752 30.2739 18.8581 30.0256C18.241 29.7772 17.6944 29.3811 17.2662 28.872C16.838 28.3629 16.5412 27.7565 16.4022 27.106C16.2632 26.4555 16.286 25.7808 16.4687 25.1412C16.6514 24.5016 16.9883 23.9166 17.45 23.4376H28.5V21.5626H12.25V23.4376H15.15C14.7207 24.233 14.4786 25.116 14.4423 26.0191C14.406 26.9222 14.5763 27.8218 14.9403 28.6491C15.3044 29.4764 15.8525 30.2097 16.5429 30.7931C17.2333 31.3764 18.0478 31.7945 18.9243 32.0153C19.8008 32.2361 20.7162 32.254 21.6006 32.0674C22.485 31.8808 23.3151 31.4948 24.0277 30.9388C24.7403 30.3827 25.3166 29.6713 25.7125 28.8588C26.1085 28.0462 26.3137 27.154 26.3125 26.2501H24.4375ZM12.25 16.5626V18.4376H28.5V16.5626H25.5937C26.0205 15.7681 26.2606 14.8868 26.2955 13.9856C26.3305 13.0844 26.1595 12.1871 25.7955 11.3619C25.4315 10.5367 24.8841 9.80541 24.195 9.2236C23.5059 8.64179 22.6931 8.22481 21.8186 8.00435C20.9441 7.78388 20.0308 7.76574 19.1483 7.95132C18.2657 8.1369 17.4371 8.52129 16.7254 9.07528C16.0137 9.62928 15.4377 10.3383 15.0413 11.1483C14.6448 11.9584 14.4383 12.8482 14.4375 13.7501H16.3125C16.3114 13.0849 16.4736 12.4296 16.785 11.8418C17.0963 11.2539 17.5473 10.7516 18.0982 10.3788C18.6492 10.006 19.2832 9.77418 19.9447 9.70372C20.6062 9.63326 21.2748 9.72629 21.8919 9.97468C22.509 10.2231 23.0556 10.6192 23.4838 11.1282C23.912 11.6373 24.2087 12.2437 24.3478 12.8942C24.4868 13.5447 24.4639 14.2194 24.2812 14.8591C24.0985 15.4987 23.7617 16.0837 23.3 16.5626H12.25ZM20.25 1.25012C15.3667 1.23784 10.6738 3.14328 7.18125 6.55636V2.73762H5.30625V9.92512H12.4937V8.05012H8.33122C10.1379 6.25226 12.3284 4.88699 14.7382 4.05682C17.148 3.22665 19.7145 2.95316 22.2452 3.25684C24.7758 3.56053 27.2048 4.43349 29.3497 5.81025C31.4947 7.187 33.2999 9.03179 34.6299 11.2061C35.9599 13.3803 36.7801 15.8276 37.0289 18.3642C37.2777 20.9008 36.9487 23.4609 36.0666 25.8522C35.1844 28.2434 33.7721 30.4038 31.9355 32.1711C30.0989 33.9384 27.8859 35.2667 25.4625 36.0564L26.0437 37.8376C30.2935 36.461 33.9123 33.6122 36.2482 29.8044C38.5841 25.9965 39.4836 21.4798 38.7849 17.0675C38.0863 12.6553 35.8351 8.63744 32.4371 5.73758C29.039 2.83771 24.7172 1.24638 20.25 1.25012Z" fill="black"/>
</svg>
