<svg width="41" height="40" viewBox="0 0 41 40" fill="none" xmlns="http://www.w3.org/2000/svg">
<path d="M11.375 20.9376H22.625V19.0626H11.375V20.9376ZM11.375 27.8126H17.625V25.9376H11.375V27.8126ZM29.5 25.9376V3.75006H4.5V31.5626C4.50657 32.8037 5.00254 33.9922 5.8802 34.8699C6.75785 35.7475 7.94632 36.2435 9.1875 36.2501H32.3125C33.5537 36.2435 34.7421 35.7475 35.6198 34.8699C36.4975 33.9922 36.9934 32.8037 37 31.5626V25.9376H29.5ZM9.1875 34.3751C8.81793 34.3759 8.45183 34.3037 8.11023 34.1627C7.76863 34.0216 7.45824 33.8145 7.19691 33.5531C6.93559 33.2918 6.72845 32.9814 6.5874 32.6398C6.44635 32.2982 6.37418 31.9321 6.375 31.5626V5.62506H27.625V31.5626C27.629 32.5792 27.9648 33.5667 28.5813 34.3751H9.1875ZM35.125 31.5626C35.125 32.3085 34.8287 33.0239 34.3013 33.5513C33.7738 34.0788 33.0584 34.3751 32.3125 34.3751C31.5666 34.3751 30.8512 34.0788 30.3237 33.5513C29.7963 33.0239 29.5 32.3085 29.5 31.5626V27.8126H35.125V31.5626ZM11.375 14.0626H22.625V12.1876H11.375V14.0626Z" fill="black"/>
</svg>
