<svg width="127" height="22" fill="none" xmlns="http://www.w3.org/2000/svg"><path d="M24.074 19.074h-3.13V8.007h11.268v11.067h-3.13v-8.917h-5.008v8.917zm9.658-8.032V22h2.885v-3.747c.967 1.044 2.542 1.123 2.921 1.123 2.752 0 4.44-1.756 4.44-4.302 0-2.655-1.67-4.331-4.383-4.331-.683 0-2.011.11-3.112 1.265h-.056l.018-.966h-2.713zm2.751 4c0-2.244 1.386-2.687 2.259-2.687.854 0 2.238.443 2.238 2.688 0 1.392-.587 2.72-2.238 2.72-1.689 0-2.259-1.328-2.259-2.72zm14.645 3.068c-1.062.996-2.085 1.265-3.224 1.265-3.112 0-3.226-2.34-3.226-3.304v-5.029h2.884v4.649c0 1.597.551 2.072 1.613 2.072 1.82 0 1.953-1.629 1.953-2.214v-4.507h2.885v8.032h-2.885v-.963zm7.022-2.42h1.764c1.365 0 1.65.412 1.65.95 0 .348-.19.822-1.614.822h-1.8v-1.771zm-2.884-4.648v8.032h5.73c2.086 0 3.528-.41 3.528-2.055 0-1.265-.703-1.818-2.296-2.102v-.048c1.044-.142 1.955-.79 1.955-1.881 0-1.946-2.277-1.946-3.169-1.946h-5.748zm2.884 1.614h1.554c.816 0 1.518.126 1.518.79 0 .728-1.1.743-1.575.743H58.15v-1.533zm10.015.98c0-1.186 1.252-1.28 1.765-1.28.323 0 1.517.015 1.556 1.059v.22c-.057.791-.816.633-2.94.902-1.747.237-3.587.68-3.587 2.514 0 .664.285 2.325 3.358 2.325 1.177 0 2.468-.301 3.225-1.091h.059l.245.79h3.036v-.142c-.55-.111-.588-.648-.57-1.518l.057-3.669c.02-.932-.075-3.003-4.42-3.003-1.044 0-4.402.094-4.535 2.893h2.751zm3.34 2.119c0 1.612-1.404 2.008-2.106 2.008-.532 0-1.48-.174-1.48-.933 0-.902 1.08-1.075 1.689-1.155 1.12-.158 1.024-.11 1.897-.427v.507zm3.188-3.099v-1.614h9.258v1.614h-3.187v6.418h-2.883v-6.418h-3.188zm12.942-2.499h7.19v-2.15H84.504v11.067h6.337c3.074 0 5.046-1.074 5.046-3.336 0-3.54-3.946-3.62-5.046-3.62h-3.206v-1.96zm0 4.111h2.599c.76 0 2.277.08 2.277 1.407 0 1.044-1.1 1.25-2.333 1.25h-2.543v-2.657zm12.009-.632c0-1.186 1.252-1.28 1.763-1.28.323 0 1.519.015 1.558 1.059v.22c-.058.791-.816.633-2.943.902-1.745.237-3.585.68-3.585 2.514 0 .664.284 2.325 3.358 2.325 1.176 0 2.467-.301 3.226-1.091h.056l.247.79h3.035v-.142c-.548-.111-.588-.648-.568-1.518l.057-3.669c.019-.932-.077-3.003-4.422-3.003-1.042 0-4.401.094-4.534 2.893h2.752zm3.339 2.119c0 1.612-1.405 2.008-2.106 2.008-.531 0-1.48-.174-1.48-.933 0-.902 1.081-1.075 1.687-1.155 1.121-.158 1.025-.11 1.899-.427v.507zm6.979 3.319h-2.884v-8.032h2.884v3.02h3.472v-3.02h2.885v8.032h-2.885v-3.399h-3.472v3.4zm13.641-8.032h3.205l-3.964 3.763 4.155 4.27h-3.378l-3.111-3.51h-.056v3.51h-2.884v-8.033h2.884v3.226h.056l3.093-3.226z" fill="#60B238"/><path d="M0 19.103h7.223V11.88H0v7.223z" fill="#373435"/><path d="M14.666 4.45v10.836h-1.473c-.637-5.36-4.004-8.726-9.364-9.362V4.45h10.837zM.01.63v8.992h1.91c5.027 0 7.575 2.548 7.575 7.573v1.91h8.99V.631H.01z" fill="#60B238"/></svg>