<svg width="60" height="60" fill="none" xmlns="http://www.w3.org/2000/svg"><rect width="60" height="60" rx="30" fill="#414143" fill-opacity=".1"/><path d="M48.75 32.688v-5.376l-5.225-1.393-1.087-2.594 2.712-4.669-3.681-3.687-4.75 2.65-2.638-1.094-1.419-5.275h-5.325l-1.418 5.275-2.638 1.094-4.662-2.607-.831.707-2.094 2.094-.844.843 2.713 4.669-1.088 2.594-5.225 1.393v5.375l5.225 1.394 1.088 2.594-2.713 4.669 3.681 3.687 4.75-2.65 2.638 1.094 1.418 5.275h5.326l1.418-5.275 2.638-1.094 4.75 2.65 3.681-3.687-2.712-4.669 1.087-2.594 5.225-1.394zm-5.944 8.35l-1.662 1.668-4.306-2.406-4.325 1.794-1.288 4.781h-2.45l-1.287-4.781-4.325-1.794-4.307 2.406-1.662-1.669 2.462-4.23-1.806-4.3-4.725-1.25v-2.5l4.725-1.25 1.806-4.3-2.462-4.232 1.662-1.669 4.306 2.406 4.326-1.793 1.287-4.782h2.45l1.288 4.782 4.325 1.793 4.306-2.406 1.656 1.669-2.456 4.231 1.794 4.294 4.725 1.25v2.5l-4.725 1.25-1.807 4.3 2.475 4.238zM30 22.813a7.187 7.187 0 100 14.373 7.187 7.187 0 000-14.373zm0 12.5A5.313 5.313 0 1135.313 30 5.319 5.319 0 0130 35.313z" fill="#000"/></svg>