<svg width="97" height="96" fill="none" xmlns="http://www.w3.org/2000/svg"><rect x=".5" width="96" height="96" rx="48" fill="#fff"/><path d="M33.5 35.667h19.334V39H33.501v-3.333zm0 10.666h19.334v3.334H33.501v-3.334zM33.5 57h11.334v3.333H33.501V57z" fill="#000"/><path fill-rule="evenodd" clip-rule="evenodd" d="M63.5 24v33h10.667v9.667a7 7 0 01-7 7H29.834a7 7 0 01-7-7V24a1.667 1.667 0 011.667-1.667h37.333A1.667 1.667 0 0163.501 24zm7.334 36.333h-7.333v6.334a3.667 3.667 0 007.333 0v-6.334zm-41 10h30.333V25.667h-34v41a3.666 3.666 0 003.667 3.666z" fill="#000"/></svg>