<svg width="97" height="96" fill="none" xmlns="http://www.w3.org/2000/svg"><rect x=".5" width="96" height="96" rx="48" fill="#fff"/><path d="M68.167 35.667h11.334V39H68.166v-3.333zM62.834 49H79.5v3.333H62.835V49zm8 13.333H79.5v3.334h-8.666v-3.334zM22.858 73.667a20.333 20.333 0 0140.618 0h-3.338a17 17 0 00-33.941 0h-3.339z" fill="#000"/><path fill-rule="evenodd" clip-rule="evenodd" d="M43.167 49.667c-8.288 0-15-6.712-15-15s6.712-15 15-15 15 6.712 15 15-6.712 15-15 15zm0-3.334c6.446 0 11.667-5.22 11.667-11.666C54.834 28.22 49.613 23 43.167 23S31.5 28.221 31.5 34.667c0 6.445 5.221 11.666 11.667 11.666z" fill="#000"/></svg>