<svg width="97" height="96" fill="none" xmlns="http://www.w3.org/2000/svg"><rect x=".5" width="96" height="96" rx="48" fill="#fff"/><path d="M54.834 46.333h6v3.334h-6v-3.334z" fill="#000"/><path fill-rule="evenodd" clip-rule="evenodd" d="M74.167 26.667v9h2.667v24.666h-2.667v9A1.667 1.667 0 0172.501 71h-48a1.667 1.667 0 01-1.667-1.667V26.667A1.667 1.667 0 0124.501 25h48a1.667 1.667 0 011.666 1.667zm-3.333 41v-7.334h-17a12.334 12.334 0 010-24.666h17v-7.334H26.167v39.334h44.667zM53.834 57h19.667V39H53.834a9 9 0 000 18z" fill="#000"/></svg>