<svg width="136" height="136" viewBox="0 0 136 136" fill="none" xmlns="http://www.w3.org/2000/svg">
<path d="M136 68C136 50.1503 128.982 33.0163 116.459 20.2959C103.937 7.57546 86.9156 0.28876 69.0681 0.00838895C51.2206 -0.271982 33.9784 6.47646 21.0629 18.7973C8.14739 31.1181 0.594226 48.0232 0.0335537 65.8641C-0.527118 83.705 5.94966 101.051 18.0661 114.158C30.1825 127.266 46.9669 135.084 64.7968 135.925C82.6267 136.765 100.072 130.562 113.368 118.653C126.665 106.744 134.745 90.0843 135.866 72.2698L112.113 70.7753C111.384 82.3548 106.132 93.1835 97.4895 100.924C88.847 108.665 77.5073 112.697 65.9179 112.151C54.3285 111.604 43.4186 106.523 35.5429 98.003C27.6673 89.4832 23.4574 78.2083 23.8218 66.6117C24.1863 55.0151 29.0958 44.0267 37.4909 36.0182C45.886 28.0097 57.0934 23.6232 68.6943 23.8055C80.2952 23.9877 91.3592 28.7241 99.4986 36.9923C107.638 45.2606 112.2 56.3977 112.2 68H136Z" fill="url(#paint0_angular)"/>
<defs>
<radialGradient id="paint0_angular" cx="0" cy="0" r="1" gradientUnits="userSpaceOnUse" gradientTransform="translate(68 68) scale(68)">
<stop offset="0%" stop-color="#9EF01A" opacity="0.01"/>
<stop offset="100%" stop-color="#9EF01A"/>
</radialGradient>
<linearGradient id="paint0_angular" x1="0%" y1="50%" x2="100%" y2="50%" >
    
          <stop offset="40%" style="stop-color:'#9EF01A';stop-opacity:1.00" />
          <stop offset="100%" style="stop-color:'#9EF01A';stop-opacity:0.00" />
          <stop offset="100%" style="stop-color:'#9EF01A;stop-opacity:1.00" />

    </linearGradient>
</defs>
</svg>
