<svg width="35" height="22" viewBox="0 0 35 22" fill="none" xmlns="http://www.w3.org/2000/svg">
<path d="M35.0002 11C35.0002 16.7991 30.2003 21.5 24.2791 21.5C21.778 21.5 19.4766 20.6609 17.6523 19.255C20.1467 17.3324 21.748 14.3491 21.748 11C21.748 7.65087 20.1467 4.66755 17.6523 2.74499C19.4766 1.33912 21.778 0.5 24.2791 0.5C30.2003 0.5 35.0002 5.20093 35.0002 11Z" fill="#F79E1B"/>
<path d="M21.7474 10.9999C21.7474 14.3491 20.1461 17.3324 17.6517 19.2549C15.158 17.3324 13.5566 14.3491 13.5566 10.9999C13.5566 7.65081 15.158 4.66749 17.6517 2.74493C20.1461 4.66749 21.7474 7.65081 21.7474 10.9999Z" fill="#FF5F00"/>
<path d="M13.5574 11C13.5574 7.65087 15.1588 4.66755 17.6525 2.74499C15.8289 1.33912 13.5274 0.5 11.0262 0.5C5.10471 0.5 0.304688 5.20093 0.304688 11C0.304688 16.7991 5.10471 21.5 11.0262 21.5C13.5274 21.5 15.8289 20.6609 17.6525 19.255C15.1588 17.3324 13.5574 14.3491 13.5574 11Z" fill="#EB001B"/>
</svg>
