<svg width="127" height="22" viewBox="0 0 127 22" fill="none" xmlns="http://www.w3.org/2000/svg">
<path d="M24.0737 19.0744H20.9434V8.00706H32.2125V19.0744H29.0828V10.1571H24.0737V19.0744Z" fill="#60B238"/>
<path d="M33.7324 11.0424V21.9999H36.6171V18.2527C37.5839 19.2967 39.1587 19.3756 39.5383 19.3756C42.2895 19.3756 43.9778 17.6199 43.9778 15.0744C43.9778 12.4185 42.308 10.7426 39.5955 10.7426C38.9117 10.7426 37.5839 10.8533 36.4834 12.0078H36.4267L36.4453 11.0424H33.7324ZM36.4834 15.0426C36.4834 12.7981 37.8689 12.3555 38.7418 12.3555C39.5955 12.3555 40.9803 12.7981 40.9803 15.0426C40.9803 16.4346 40.3925 17.7631 38.7418 17.7631C37.0532 17.7631 36.4834 16.4346 36.4834 15.0426Z" fill="#60B238"/>
<path d="M51.1282 18.1106C50.0662 19.106 49.043 19.3753 47.9035 19.3753C44.7921 19.3753 44.6777 17.0351 44.6777 16.0709V11.0421H47.5618V15.6908C47.5618 17.2883 48.1134 17.7629 49.1749 17.7629C50.9954 17.7629 51.1282 16.1341 51.1282 15.549V11.0421H54.0134V19.0744H51.1282V18.1106Z" fill="#60B238"/>
<path d="M58.1497 15.6908H59.9143C61.2793 15.6908 61.5641 16.1022 61.5641 16.64C61.5641 16.9876 61.3736 17.4622 59.9501 17.4622H58.1497V15.6908ZM55.2656 11.0421V19.0744H60.9954C63.0822 19.0744 64.5238 18.6634 64.5238 17.0191C64.5238 15.7542 63.8209 15.201 62.228 14.9167V14.8689C63.2718 14.7266 64.1829 14.0782 64.1829 12.9876C64.1829 11.0421 61.9059 11.0421 61.0141 11.0421H55.2656ZM58.1497 12.6557H59.7042C60.5204 12.6557 61.2216 12.7821 61.2216 13.4456C61.2216 14.1736 60.1216 14.1893 59.6475 14.1893H58.1497V12.6557Z" fill="#60B238"/>
<path d="M68.1652 13.6359C68.1652 12.4501 69.4172 12.3555 69.9298 12.3555C70.2527 12.3555 71.447 12.3714 71.486 13.4147C71.486 13.4938 71.486 13.557 71.486 13.6359C71.429 14.4264 70.6701 14.2684 68.5459 14.5371C66.7993 14.7742 64.959 15.2165 64.959 17.0512C64.959 17.7154 65.2438 19.3756 68.3174 19.3756C69.4944 19.3756 70.7847 19.0746 71.5423 18.2846H71.6008L71.8464 19.0746H74.8818V18.9328C74.3318 18.8219 74.2937 18.2846 74.3124 17.4147L74.3693 13.7461C74.3887 12.814 74.2937 10.7426 69.9492 10.7426C68.9054 10.7426 65.5473 10.8372 65.4144 13.6359H68.1652ZM71.5047 15.7545C71.5047 17.3674 70.1005 17.7631 69.3994 17.7631C68.8672 17.7631 67.9187 17.5886 67.9187 16.8301C67.9187 15.9284 68.9998 15.7545 69.6077 15.6754C70.7271 15.5172 70.6318 15.5649 71.5047 15.2483V15.7545Z" fill="#60B238"/>
<path d="M74.6934 12.6557V11.0421H83.9515V12.6557H80.7642V19.0744H77.8809V12.6557H74.6934Z" fill="#60B238"/>
<path d="M87.6354 10.1571H94.8254V8.00706H84.5039V19.0744H90.8407C93.915 19.0744 95.8872 17.9999 95.8872 15.7383C95.8872 12.1973 91.9414 12.1177 90.8407 12.1177H87.6354V10.1571ZM87.6354 14.2682H90.2337C90.9945 14.2682 92.511 14.3475 92.511 15.6751C92.511 16.7189 91.4101 16.9241 90.1777 16.9241H87.6354V14.2682Z" fill="#60B238"/>
<path d="M99.6437 13.6359C99.6437 12.4501 100.896 12.3555 101.407 12.3555C101.73 12.3555 102.926 12.3714 102.965 13.4147C102.965 13.4938 102.965 13.557 102.965 13.6359C102.907 14.4264 102.149 14.2684 100.022 14.5371C98.2775 14.7742 96.4375 15.2165 96.4375 17.0512C96.4375 17.7154 96.7214 19.3756 99.795 19.3756C100.971 19.3756 102.262 19.0746 103.021 18.2846H103.077L103.324 19.0746H106.359V18.9328C105.811 18.8219 105.771 18.2846 105.791 17.4147L105.848 13.7461C105.867 12.814 105.771 10.7426 101.426 10.7426C100.384 10.7426 97.0249 10.8372 96.8923 13.6359H99.6437ZM102.983 15.7545C102.983 17.3674 101.578 17.7631 100.877 17.7631C100.346 17.7631 99.3972 17.5886 99.3972 16.8301C99.3972 15.9284 100.478 15.7545 101.084 15.6754C102.205 15.5172 102.109 15.5649 102.983 15.2483V15.7545Z" fill="#60B238"/>
<path d="M109.962 19.0744H107.078V11.0421H109.962V14.0625H113.434V11.0421H116.319V19.0744H113.434V15.6751H109.962V19.0744Z" fill="#60B238"/>
<path d="M123.603 11.0421H126.808L122.844 14.805L126.999 19.0744H123.621L120.51 15.5647H120.454V19.0744H117.57V11.0421H120.454V14.2682H120.51L123.603 11.0421Z" fill="#60B238"/>
<path d="M0 19.1034H7.22346V11.8799H0V19.1034Z" fill="#373435"/>
<path d="M14.6663 4.44953C14.6663 6.90578 14.6663 12.8297 14.6663 15.286C13.9803 15.286 13.8594 15.286 13.1927 15.286C12.5564 9.9268 9.18905 6.56033 3.82893 5.92407C3.82893 5.25737 3.82893 5.13699 3.82893 4.44953C6.28541 4.44953 12.2098 4.44953 14.6663 4.44953ZM0.00976562 0.630829V9.6217H1.91992C6.94658 9.6217 9.49531 12.17 9.49531 17.195V19.1052H18.4855V0.630829H0.00976562Z" fill="#60B238"/>
</svg>
