<svg width="60" height="60" viewBox="0 0 60 60" fill="none" xmlns="http://www.w3.org/2000/svg">
<rect width="60" height="60" rx="30" fill="#414143" fill-opacity="0.1"/>
<path d="M48.75 32.6875V27.3125L43.525 25.9187L42.4375 23.325L45.15 18.6562L41.4688 14.9688L36.7188 17.6188L34.0813 16.525L32.6625 11.25H27.3375L25.9188 16.525L23.2812 17.6188L18.6188 15.0125L17.7876 15.7188L15.6937 17.8125L14.85 18.6562L17.5626 23.325L16.475 25.9187L11.25 27.3125V32.6875L16.475 34.0813L17.5626 36.675L14.85 41.3438L18.5313 45.0312L23.2812 42.3812L25.9188 43.475L27.3375 48.75H32.6625L34.0813 43.475L36.7188 42.3812L41.4688 45.0312L45.15 41.3438L42.4375 36.675L43.525 34.0813L48.75 32.6875ZM42.8062 41.0375L41.1438 42.7063L36.8375 40.3L32.5125 42.0937L31.2251 46.875H28.775L27.4876 42.0937L23.1625 40.3L18.8563 42.7063L17.1938 41.0375L19.6563 36.8063L17.85 32.5063L13.125 31.2563V28.7563L17.85 27.5063L19.6563 23.2063L17.1938 18.975L18.8563 17.3063L23.1625 19.7125L27.4876 17.9187L28.775 13.1375H31.2251L32.5125 17.9187L36.8375 19.7125L41.1438 17.3063L42.8001 18.975L40.3438 23.2063L42.1375 27.5L46.8626 28.75V31.25L42.1375 32.5L40.3313 36.8L42.8062 41.0375ZM30 22.8125C28.5784 22.8125 27.1888 23.234 26.0069 24.0238C24.8249 24.8136 23.9037 25.9361 23.3597 27.2495C22.8157 28.5628 22.6733 30.008 22.9507 31.4022C23.228 32.7964 23.9125 34.0771 24.9177 35.0823C25.9229 36.0875 27.2036 36.7721 28.5978 37.0494C29.992 37.3267 31.4372 37.1844 32.7505 36.6404C34.0639 36.0964 35.1864 35.1751 35.9762 33.9931C36.766 32.8112 37.1875 31.4216 37.1875 30C37.1858 28.0943 36.4281 26.2671 35.0806 24.9195C33.733 23.572 31.9057 22.8142 30 22.8125ZM30 35.3125C28.9493 35.3125 27.9222 35.0009 27.0486 34.4172C26.1749 33.8334 25.494 33.0037 25.0919 32.033C24.6898 31.0623 24.5846 29.9941 24.7896 28.9636C24.9946 27.9331 25.5005 26.9864 26.2435 26.2435C26.9865 25.5005 27.9331 24.9946 28.9636 24.7896C29.9941 24.5846 31.0623 24.6898 32.033 25.0919C33.0037 25.494 33.8334 26.1749 34.4172 27.0485C35.0009 27.9222 35.3125 28.9493 35.3125 30C35.3108 31.4085 34.7507 32.7588 33.7547 33.7547C32.7588 34.7506 31.4085 35.3108 30 35.3125Z" fill="black"/>
</svg>
