<svg width="38" height="12" viewBox="0 0 38 12" fill="none" xmlns="http://www.w3.org/2000/svg">
<path d="M15.8281 0L13.9461 11.9759H16.9543L18.8352 0H15.8281ZM24.902 4.87833C23.8507 4.3475 23.2063 3.98922 23.2063 3.4463C23.2191 2.95265 23.7512 2.44692 24.9395 2.44692C25.9168 2.42182 26.6352 2.65668 27.1801 2.89036L27.4531 3.01495L27.8621 0.509282C27.2679 0.274421 26.3258 0.0156393 25.1621 0.0156393C22.1914 0.0156393 20.0996 1.595 20.0866 3.85385C20.0621 5.52075 21.5843 6.44574 22.7234 7.00062C23.8871 7.56984 24.2832 7.93889 24.2832 8.44462C24.2704 9.22109 23.3423 9.57937 22.4762 9.57937C21.2763 9.57937 20.6317 9.39484 19.6532 8.96218L19.2571 8.77766L18.8364 11.3816C19.5431 11.7028 20.8426 11.9855 22.1916 12C25.3486 12 27.4029 10.4446 27.4287 8.03719C27.439 6.71661 26.6363 5.70514 24.902 4.87833ZM35.5742 0.0370623H33.2468C32.5296 0.0370623 31.9846 0.248004 31.6741 1.00056L27.2057 11.9759H30.3627L31.2322 9.59974H34.7643L35.2154 11.9855H37.9999L35.5742 0.0370623ZM32.1078 7.20171C32.1687 7.20775 33.3195 3.32275 33.3195 3.32275L34.2359 7.20171C34.2359 7.20171 32.702 7.20171 32.1078 7.20171ZM11.4325 0L8.48517 8.13655L8.16411 6.53195C7.61915 4.68053 5.91062 2.66864 4.00391 1.66926L6.70274 11.964H9.88562L14.6153 0.00131355H11.4325V0Z" fill="#005BAC"/>
<path d="M7.17267 1.54521C6.94299 0.63204 6.21051 0.0161641 5.2157 0.00302124H0.54807L0.5 0.22461C4.14107 1.14251 7.19722 3.96692 8.18868 6.62362L7.17267 1.54521Z" fill="#FFCA28"/>
</svg>
