<svg width="71" height="71" viewBox="0 0 71 71" fill="none" xmlns="http://www.w3.org/2000/svg">
<g clip-path="url(#clip0)">
<path d="M70 35.5176C70.0005 34.4012 69.0959 33.4956 67.9795 33.4951L54.9881 33.4887C53.8717 33.4882 52.9662 34.3928 52.9656 35.5092C52.9651 36.6256 53.8697 37.5311 54.9861 37.5317L67.9775 37.5381C69.0939 37.5386 69.9994 36.634 70 35.5176Z" fill="#FF0000"/>
<path d="M18.0342 35.4902C18.0347 34.3738 17.1301 33.4683 16.0137 33.4678L3.02241 33.4614C1.90601 33.4608 1.00048 34.3655 0.999928 35.4819C0.99938 36.5983 1.90402 37.5038 3.02042 37.5043L16.0117 37.5107C17.1282 37.5113 18.0336 36.6066 18.0342 35.4902Z" fill="#B3B3B3"/>
<path d="M53.3911 27.516L64.6452 21.0258C65.6125 20.4681 65.9443 19.2319 65.3865 18.2648C64.8287 17.2977 63.5926 16.9659 62.6255 17.5236L51.3714 24.0137C50.7226 24.3878 50.3599 25.0671 50.3595 25.7657C50.3593 26.1087 50.4465 26.4563 50.6302 26.7747C51.1879 27.7418 52.4241 28.0737 53.3911 27.516Z" fill="#B3B3B3"/>
<path d="M8.3748 53.4768L19.6286 46.9867C20.5959 46.429 20.9277 45.1928 20.3699 44.2257C19.8121 43.2586 18.576 42.9268 17.6089 43.4845L6.35504 49.9746C5.70623 50.3486 5.34351 51.0279 5.34317 51.7266C5.343 52.0695 5.43016 52.4171 5.61382 52.7355C6.17154 53.7026 7.40772 54.0345 8.3748 53.4768Z" fill="#B3B3B3"/>
<path d="M47.0012 19.6396L53.5026 8.39175C54.0615 7.42494 53.7308 6.18871 52.7641 5.63004C51.7976 5.07136 50.561 5.40201 50.0024 6.36854L43.5009 17.6164C43.3169 17.9346 43.2294 18.2821 43.2292 18.6251C43.2289 19.3237 43.5911 20.0034 44.2395 20.3781C45.2061 20.9368 46.4426 20.6061 47.0012 19.6396Z" fill="#B3B3B3"/>
<path d="M20.9968 64.6276L27.4979 53.38C28.0565 52.4132 27.7259 51.1769 26.7592 50.6183C25.7926 50.0596 24.5561 50.3903 23.9975 51.3568L17.4964 62.6044C17.3124 62.9228 17.2249 63.2701 17.2248 63.6131C17.2244 64.3117 17.5866 64.9915 18.2349 65.3661C19.2017 65.9248 20.4382 65.5941 20.9968 64.6276Z" fill="#B3B3B3"/>
<path d="M37.5307 16.013L37.5371 3.02148C37.5376 1.90509 36.633 0.999555 35.5166 0.999007C34.4002 0.998458 33.4947 1.9031 33.4941 3.0195L33.4877 16.011C33.4872 17.1274 34.3918 18.033 35.5082 18.0335C36.6246 18.0341 37.5302 17.1294 37.5307 16.013Z" fill="#B3B3B3"/>
<path d="M37.5053 67.9775L37.5117 54.9863C37.5123 53.8699 36.6076 52.9644 35.4912 52.9639C34.3748 52.9633 33.4693 53.8679 33.4687 54.9843L33.4624 67.9755C33.4618 69.0919 34.3664 69.9974 35.4828 69.998C36.5992 69.9985 37.5048 69.0939 37.5053 67.9775Z" fill="#FF0000"/>
<path d="M26.7745 20.3706C27.7417 19.8129 28.0736 18.5769 27.5157 17.6096L21.0255 6.35535C20.4678 5.38827 19.2316 5.05641 18.2645 5.61413C17.6157 5.98819 17.253 6.6675 17.2527 7.36613C17.2525 7.70911 17.3397 8.05671 17.5233 8.37512L24.0135 19.6294C24.5712 20.5964 25.8074 20.9283 26.7745 20.3706Z" fill="#B3B3B3"/>
<path d="M52.7345 65.3859C53.7017 64.8282 54.0334 63.5921 53.4757 62.6249L46.9855 51.371C46.428 50.4039 45.1918 50.072 44.2247 50.6298C43.5759 51.0038 43.213 51.6831 43.2127 52.3818C43.2125 52.7246 43.2997 53.0723 43.4833 53.3907L49.9735 64.6447C50.5312 65.6118 51.7674 65.9436 52.7345 65.3859Z" fill="#FF0000"/>
<path d="M20.3783 26.7585C20.9373 25.792 20.6065 24.5554 19.6398 23.9968L8.39208 17.4956C7.42555 16.9369 6.18904 17.2676 5.63037 18.2341C5.44639 18.5523 5.3589 18.8999 5.35873 19.2428C5.35838 19.9415 5.72057 20.6213 6.36888 20.9958L17.6166 27.497C18.5831 28.0557 19.8196 27.7251 20.3783 26.7585Z" fill="#B3B3B3"/>
<path d="M65.3685 52.7624C65.9275 51.7957 65.5967 50.5592 64.63 50.0007L53.3826 43.4996C52.4161 42.9408 51.1796 43.2714 50.6209 44.2381C50.4369 44.5563 50.3494 44.9038 50.3492 45.2468C50.3489 45.9455 50.7111 46.6251 51.3594 46.9998L62.6068 53.5009C63.5734 54.0596 64.8099 53.7289 65.3685 52.7624Z" fill="#FF0000"/>
</g>
<defs>
<clipPath id="clip0">
<rect width="69" height="69" fill="white" transform="translate(70.0166 1.01562) rotate(90.0281)"/>
</clipPath>
</defs>
</svg>
