<svg width="97" height="96" viewBox="0 0 97 96" fill="none" xmlns="http://www.w3.org/2000/svg">
<rect x="0.5" width="96" height="96" rx="48" fill="white"/>
<path d="M33.5007 35.6666H52.834V38.9999H33.5007V35.6666Z" fill="black"/>
<path d="M33.5007 46.3333H52.834V49.6666H33.5007V46.3333Z" fill="black"/>
<path d="M33.5007 56.9999H44.834V60.3333H33.5007V56.9999Z" fill="black"/>
<path fill-rule="evenodd" clip-rule="evenodd" d="M63.5007 23.9999V56.9999H74.1673V66.6666C74.1673 68.5231 73.4298 70.3036 72.1171 71.6163C70.8043 72.9291 69.0238 73.6666 67.1673 73.6666H29.834C27.9775 73.6666 26.197 72.9291 24.8842 71.6163C23.5715 70.3036 22.834 68.5231 22.834 66.6666V23.9999C22.834 23.5579 23.0096 23.134 23.3221 22.8214C23.6347 22.5088 24.0586 22.3333 24.5007 22.3333H61.834C62.276 22.3333 62.6999 22.5088 63.0125 22.8214C63.3251 23.134 63.5007 23.5579 63.5007 23.9999ZM70.834 60.3333H63.5007V66.6666C63.5007 67.639 63.887 68.5717 64.5746 69.2593C65.2622 69.9469 66.1949 70.3333 67.1673 70.3333C68.1398 70.3333 69.0724 69.9469 69.76 69.2593C70.4477 68.5717 70.834 67.639 70.834 66.6666V60.3333ZM29.834 70.3333H60.1673V25.6666H26.1673V66.6666C26.1673 67.639 26.5536 68.5717 27.2413 69.2593C27.9289 69.9469 28.8615 70.3333 29.834 70.3333Z" fill="black"/>
</svg>
