<svg width="97" height="96" viewBox="0 0 97 96" fill="none" xmlns="http://www.w3.org/2000/svg">
<rect x="0.5" width="96" height="96" rx="48" fill="white"/>
<path d="M68.1672 35.6667H79.5005V39.0001H68.1672V35.6667Z" fill="black"/>
<path d="M62.8338 49.0001H79.5005V52.3334H62.8338V49.0001Z" fill="black"/>
<path d="M70.8338 62.3334H79.5005V65.6667H70.8338V62.3334Z" fill="black"/>
<path d="M22.8584 73.6667C23.1058 68.6381 25.2124 63.8658 28.7893 60.2889C32.6026 56.4757 37.7744 54.3334 43.1672 54.3334C48.5599 54.3334 53.7318 56.4757 57.545 60.2889C61.1219 63.8658 63.2285 68.6381 63.4759 73.6667H60.1377C59.8937 69.5228 58.1396 65.5975 55.188 62.6459C51.9998 59.4578 47.6758 57.6667 43.1672 57.6667C38.6585 57.6667 34.3345 59.4578 31.1463 62.6459C28.1947 65.5975 26.4406 69.5228 26.1966 73.6667H22.8584Z" fill="black"/>
<path fill-rule="evenodd" clip-rule="evenodd" d="M43.1672 49.6667C34.8794 49.6667 28.1672 42.9545 28.1672 34.6667C28.1672 26.379 34.8794 19.6667 43.1672 19.6667C51.4549 19.6667 58.1672 26.379 58.1672 34.6667C58.1672 42.9545 51.4549 49.6667 43.1672 49.6667ZM43.1672 46.3334C49.6128 46.3334 54.8338 41.1124 54.8338 34.6667C54.8338 28.2211 49.6128 23.0001 43.1672 23.0001C36.7215 23.0001 31.5005 28.2211 31.5005 34.6667C31.5005 41.1124 36.7215 46.3334 43.1672 46.3334Z" fill="black"/>
</svg>
