<svg width="97" height="96" viewBox="0 0 97 96" fill="none" xmlns="http://www.w3.org/2000/svg">
<rect x="0.5" width="96" height="96" rx="48" fill="white"/>
<path d="M54.834 46.3333H60.834V49.6667H54.834V46.3333Z" fill="black"/>
<path fill-rule="evenodd" clip-rule="evenodd" d="M74.1673 26.6667V35.6667H76.834V60.3333H74.1673V69.3333C74.1673 69.7754 73.9917 70.1993 73.6792 70.5118C73.3666 70.8244 72.9427 71 72.5007 71H24.5007C24.0586 71 23.6347 70.8244 23.3221 70.5118C23.0096 70.1993 22.834 69.7754 22.834 69.3333V26.6667C22.834 26.2246 23.0096 25.8007 23.3221 25.4882C23.6347 25.1756 24.0586 25 24.5007 25H72.5007C72.9427 25 73.3666 25.1756 73.6792 25.4882C73.9917 25.8007 74.1673 26.2246 74.1673 26.6667ZM70.834 67.6667V60.3333H53.834C50.563 60.3333 47.426 59.0339 45.113 56.721C42.8001 54.408 41.5007 51.271 41.5007 48C41.5007 44.729 42.8001 41.592 45.113 39.279C47.426 36.9661 50.563 35.6667 53.834 35.6667H70.834V28.3333H26.1673V67.6667H70.834ZM53.834 57H73.5007V39H53.834C51.447 39 49.1579 39.9482 47.47 41.636C45.7822 43.3239 44.834 45.6131 44.834 48C44.834 50.3869 45.7822 52.6761 47.47 54.364C49.1579 56.0518 51.447 57 53.834 57Z" fill="black"/>
</svg>
